<svg width="16" height="12" viewBox="0 0 16 12" fill="none" xmlns="http://www.w3.org/2000/svg">
<path d="M8.051 -0.000999451H8.14C8.962 0.00200055 13.127 0.0320007 14.25 0.334001C14.5895 0.426169 14.8989 0.605823 15.1472 0.855009C15.3955 1.10419 15.574 1.41418 15.665 1.754C15.766 2.134 15.837 2.637 15.885 3.156L15.895 3.26L15.917 3.52L15.925 3.624C15.99 4.538 15.998 5.394 15.999 5.581V5.656C15.998 5.85 15.989 6.764 15.917 7.716L15.909 7.821L15.9 7.925C15.85 8.497 15.776 9.065 15.665 9.483C15.574 9.82282 15.3955 10.1328 15.1472 10.382C14.8989 10.6312 14.5895 10.8108 14.25 10.903C13.09 11.215 8.681 11.237 8.07 11.238H7.928C7.619 11.238 6.341 11.232 5.001 11.186L4.831 11.18L4.744 11.176L4.573 11.169L4.402 11.162C3.292 11.113 2.235 11.034 1.748 10.902C1.40863 10.8099 1.09935 10.6304 0.851051 10.3814C0.602753 10.1324 0.424123 9.82263 0.333 9.483C0.222 9.066 0.148 8.497 0.098 7.925L0.09 7.82L0.082 7.716C0.0323634 7.03842 0.00501532 6.35938 0 5.68L0 5.557C0.002 5.342 0.01 4.599 0.064 3.779L0.071 3.676L0.074 3.624L0.082 3.52L0.104 3.26L0.114 3.156C0.162 2.637 0.233 2.133 0.334 1.754C0.42497 1.41418 0.603532 1.10419 0.85184 0.855009C1.10015 0.605823 1.40951 0.426169 1.749 0.334001C2.236 0.204001 3.293 0.124 4.403 0.0740005L4.573 0.0670005L4.745 0.0610007L4.831 0.0580007L5.002 0.0510007C5.95371 0.0204042 6.90581 0.00340231 7.858 5.96046e-07L8.051 -0.000999451ZM6.4 3.209V8.027L10.557 5.619L6.4 3.209Z" fill="white"/>
</svg>
